<?xml version="1.0" encoding="utf-8"?>
<!-- Generator: Adobe Illustrator 23.0.1, SVG Export Plug-In . SVG Version: 6.00 Build 0)  -->
<svg version="1.1" id="Layer_1" xmlns="http://www.w3.org/2000/svg" xmlns:xlink="http://www.w3.org/1999/xlink" x="0px" y="0px"
	 viewBox="0 0 1038 435" style="enable-background:new 0 0 1038 435;" xml:space="preserve">
<style type="text/css">
	.st0{opacity:0.54;fill:url(#SVGID_1_);enable-background:new    ;}
	.st1{opacity:0.54;fill:url(#SVGID_2_);enable-background:new    ;}
	.st2{opacity:0.32;fill:url(#SVGID_3_);enable-background:new    ;}
	.st3{fill:#FFFFFF;}
	.st4{opacity:0.54;fill:url(#SVGID_4_);enable-background:new    ;}
	.st5{opacity:0.54;fill:url(#SVGID_5_);enable-background:new    ;}
	.st6{opacity:0.32;fill:url(#SVGID_6_);enable-background:new    ;}
</style>
<title>MSML-Logo2017-default-01</title>
<g>

		<linearGradient id="SVGID_1_" gradientUnits="userSpaceOnUse" x1="1050.1841" y1="177.4783" x2="1050.1841" y2="480.2108" gradientTransform="matrix(-0.9353 0.3538 0.3538 0.9353 1088.4559 -466.5306)">
		<stop  offset="0" style="stop-color:#1D6ECF"/>
		<stop  offset="1" style="stop-color:#54B9FF"/>
	</linearGradient>
	<path class="st0" d="M333.8,78.8c22.4,59.1-48.6,278.1-80.9,290.3c-32.3,12.2-174.7-110-192.7-157.6S311.5,19.7,333.8,78.8z"/>

		<linearGradient id="SVGID_2_" gradientUnits="userSpaceOnUse" x1="264.8203" y1="314.1766" x2="264.8203" y2="616.9049" gradientTransform="matrix(1 0 0 1 -22.3975 -254.1846)">
		<stop  offset="0" style="stop-color:#1D6ECF"/>
		<stop  offset="1" style="stop-color:#54B9FF"/>
	</linearGradient>
	<path class="st1" d="M91,125.6c0,63.2,143.9,242.9,178.4,242.9c34.5,0,124.5-164.7,124.5-215.6C393.8,102.1,91,62.4,91,125.6z"/>

		<linearGradient id="SVGID_3_" gradientUnits="userSpaceOnUse" x1="208.1255" y1="171.7746" x2="208.1255" y2="244.3446" gradientTransform="matrix(1 0 0 -1 0 436)">
		<stop  offset="0" style="stop-color:#1A71D9"/>
		<stop  offset="1" style="stop-color:#78C8FF"/>
	</linearGradient>
	<path class="st2" d="M220.4,333c47.7-55,100.4-135,100.4-172.2c0-42-141.3-35.9-225.4-12C112.2,200.8,173.7,285.3,220.4,333z"/>
	<path class="st3" d="M301.1,139.2c-12.8-5.1-31-7.9-52-8.8l-16.5,52c-5.8,18.8-11.5,40.6-16,60.6h-1c-3.8-20-8.8-40.9-14.2-60.4
		l-14.7-50.2c-18,1.7-36.2,4.3-53.4,7.6l-4.8,75c9.6,15.4,20.5,31.3,31.8,46.6l1.6-30.8c1-21,2-46.8,2.8-69.8h0.5
		c4.2,22,9.8,46,15.2,66l18,65h29.8l20.5-65.8c6.5-19.8,13.5-43.2,19-65.2h0.5c0,25,0.8,49,1.5,69.3l1.6,36.7
		c13.2-19.3,24.9-38.7,33.7-56.2L301.1,139.2z"/>
</g>
<g>

		<linearGradient id="SVGID_4_" gradientUnits="userSpaceOnUse" x1="1050.1841" y1="177.4783" x2="1050.1841" y2="480.2108" gradientTransform="matrix(-0.9353 0.3538 0.3538 0.9353 1088.4559 -466.5306)">
		<stop  offset="0" style="stop-color:#1D6ECF"/>
		<stop  offset="1" style="stop-color:#54B9FF"/>
	</linearGradient>
	<path class="st4" d="M333.8,78.8c22.4,59.1-48.6,278.1-80.9,290.3c-32.3,12.2-174.7-110-192.7-157.6S311.5,19.7,333.8,78.8z"/>

		<linearGradient id="SVGID_5_" gradientUnits="userSpaceOnUse" x1="264.8203" y1="314.1766" x2="264.8203" y2="616.9049" gradientTransform="matrix(1 0 0 1 -22.3975 -254.1846)">
		<stop  offset="0" style="stop-color:#1D6ECF"/>
		<stop  offset="1" style="stop-color:#54B9FF"/>
	</linearGradient>
	<path class="st5" d="M91,125.6c0,63.2,143.9,242.9,178.4,242.9c34.5,0,124.5-164.7,124.5-215.6C393.8,102.1,91,62.4,91,125.6z"/>

		<linearGradient id="SVGID_6_" gradientUnits="userSpaceOnUse" x1="208.1255" y1="171.7746" x2="208.1255" y2="244.3446" gradientTransform="matrix(1 0 0 -1 0 436)">
		<stop  offset="0" style="stop-color:#1A71D9"/>
		<stop  offset="1" style="stop-color:#78C8FF"/>
	</linearGradient>
	<path class="st6" d="M220.4,333c47.7-55,100.4-135,100.4-172.2c0-42-141.3-35.9-225.4-12C112.2,200.8,173.7,285.3,220.4,333z"/>
	<path class="st3" d="M301.1,139.2c-12.8-5.1-31-7.9-52-8.8l-16.5,52c-5.8,18.8-11.5,40.6-16,60.6h-1c-3.8-20-8.8-40.9-14.2-60.4
		l-14.7-50.2c-18,1.7-36.2,4.3-53.4,7.6l-4.8,75c9.6,15.4,20.5,31.3,31.8,46.6l1.6-30.8c1-21,2-46.8,2.8-69.8h0.5
		c4.2,22,9.8,46,15.2,66l18,65h29.8l20.5-65.8c6.5-19.8,13.5-43.2,19-65.2h0.5c0,25,0.8,49,1.5,69.3l1.6,36.7
		c13.2-19.3,24.9-38.7,33.7-56.2L301.1,139.2z"/>
</g>
<g>
	<path class="st3" d="M462,157.7h33.4l34.1,68.8l33.9-68.8h33.4v117.7h-27.2l-0.2-74.5l-30,62.8h-19.8l-30.2-62.8v74.5H462V157.7z"
		/>
	<path class="st3" d="M680.6,184c-7.1-2.3-13.1-3.5-17.9-3.5c-3.8,0-6.8,0.7-9,2.1c-2.1,1.3-3.4,3.6-3.3,6.1c0,2.5,1,4.8,2.9,6.5
		c2.1,1.8,4.5,3.3,7,4.2c2.8,1.1,6.9,2.4,12.4,4.1c6.9,1.9,13.6,4.3,20.2,7c5.4,2.4,10.1,6.1,13.7,10.8c3.8,4.9,5.7,11.2,5.7,19
		c0,7.8-2.1,14.5-6.2,20.1c-4.4,5.7-10.3,10-17,12.5c-7.7,2.9-15.9,4.3-24.1,4.2c-9.9,0-19.8-1.8-29.1-5.1
		c-9.1-3.1-17.6-7.9-25.1-14l11.9-24c6.2,5.5,13.4,9.8,21.1,12.9c8.1,3.4,15.3,5,21.6,5c4.6,0,8.2-0.8,10.8-2.5
		c2.6-1.6,4.1-4.4,3.9-7.4c0.1-2.6-1-5-2.9-6.7c-2.2-1.9-4.7-3.4-7.4-4.3c-3-1.1-7.1-2.3-12.5-3.8c-6.8-1.8-13.5-4.1-20-6.8
		c-5.3-2.3-9.9-5.9-13.5-10.4c-3.7-4.6-5.6-10.8-5.6-18.5c-0.1-6.8,1.9-13.5,5.8-19.1c4.2-5.7,9.9-10.1,16.4-12.7
		c7.1-3,15.4-4.4,24.8-4.4c8.5,0,17,1.2,25.2,3.6c7.7,2.1,15,5.4,21.8,9.7l-11.6,24.5C694.3,189.3,687.6,186.3,680.6,184z"/>
	<path class="st3" d="M728,157.7h33.4l34.1,68.8l33.9-68.8h33.4v117.7h-27.2l-0.2-74.5l-30,62.8h-19.8l-30.2-62.8v74.5H728V157.7z"
		/>
	<path class="st3" d="M885.6,157.7h30.7v91.5h49.8v26.2h-80.6V157.7z"/>
</g>
</svg>
