<svg viewBox="0 0 1038 435" xmlns="http://www.w3.org/2000/svg" xmlns:xlink="http://www.w3.org/1999/xlink"><linearGradient id="a" gradientTransform="matrix(-.93532059 .35380135 -.35380135 -.93532059 893.471 361.116)" gradientUnits="userSpaceOnUse" x1="574.995" x2="574.995" y1="527.648" y2="224.915"><stop offset="0" stop-color="#1d6ecf"/><stop offset="1" stop-color="#54b9ff"/></linearGradient><linearGradient id="b" gradientTransform="matrix(1 0 0 -1 -22.398 537.815)" x1="264.82" x2="264.82" xlink:href="#a" y1="477.823" y2="175.095"/><linearGradient id="c" gradientUnits="userSpaceOnUse" x1="208.125" x2="208.125" y1="264.225" y2="191.655"><stop offset="0" stop-color="#1a71d9"/><stop offset="1" stop-color="#78c8ff"/></linearGradient><path d="m333.838 78.82c22.368 59.135-48.623 278.131-80.899 290.34-32.275 12.209-174.699-110.049-192.686-157.601s251.217-191.875 273.586-132.739z" fill="url(#a)" opacity=".54"/><path d="m90.996 125.59c0 63.225 143.879 242.94 178.389 242.94 34.507 0 124.465-164.739 124.465-215.579 0-50.841-302.853-90.586-302.853-27.361z" fill="url(#b)" opacity=".54"/><path d="m220.425 332.958c47.685-55.029 100.424-134.951 100.424-172.175 0-42.004-141.347-35.949-225.446-11.961 16.798 51.976 78.26 136.499 125.022 184.136z" fill="url(#c)" opacity=".32"/><path d="m301.102 139.182c-12.827-5.122-31.026-7.938-51.981-8.844l-16.459 52.043c-5.75 18.75-11.5 40.619-16 60.619h-1c-3.75-20-8.75-40.869-14.25-60.369l-14.716-50.228c-17.992 1.706-36.173 4.263-53.406 7.561l-4.786 75.003c9.616 15.435 20.477 31.26 31.844 46.619l1.564-30.827c1-21 2-46.76 2.75-69.76h.5c4.25 22 9.75 46 15.25 66l18 65h29.75l20.5-65.75c6.5-19.75 13.5-43.25 19-65.25h.5c0 25 .75 49.006 1.5 69.256l1.565 36.692c13.185-19.313 24.938-38.669 33.696-56.239z" fill="#fff"/><path d="m333.838 78.82c22.368 59.135-48.623 278.131-80.899 290.34-32.275 12.209-174.699-110.049-192.686-157.601s251.217-191.875 273.586-132.739z" fill="url(#a)" opacity=".54"/><path d="m90.996 125.59c0 63.225 143.879 242.94 178.389 242.94 34.507 0 124.465-164.739 124.465-215.579 0-50.841-302.853-90.586-302.853-27.361z" fill="url(#b)" opacity=".54"/><path d="m220.425 332.958c47.685-55.029 100.424-134.951 100.424-172.175 0-42.004-141.347-35.949-225.446-11.961 16.798 51.976 78.26 136.499 125.022 184.136z" fill="url(#c)" opacity=".32"/><path d="m301.102 139.182c-12.827-5.122-31.026-7.938-51.981-8.844l-16.459 52.043c-5.75 18.75-11.5 40.619-16 60.619h-1c-3.75-20-8.75-40.869-14.25-60.369l-14.716-50.228c-17.992 1.706-36.173 4.263-53.406 7.561l-4.786 75.003c9.616 15.435 20.477 31.26 31.844 46.619l1.564-30.827c1-21 2-46.76 2.75-69.76h.5c4.25 22 9.75 46 15.25 66l18 65h29.75l20.5-65.75c6.5-19.75 13.5-43.25 19-65.25h.5c0 25 .75 49.006 1.5 69.256l1.565 36.692c13.185-19.313 24.938-38.669 33.696-56.239z" fill="#fff"/><path d="m462 157.65h33.399l34.07 68.811 33.902-68.811h33.399v117.65h-27.189l-.168-74.517-30.042 62.769h-19.805l-30.21-62.769v74.517h-27.357zm218.601 26.35q-10.66-3.524-17.874-3.525-5.708 0-8.98 2.098a6.83 6.83 0 0 0 -3.273 6.126 8.379 8.379 0 0 0 2.853 6.461 21.77 21.77 0 0 0 7.049 4.196q4.193 1.598 12.42 4.112a161.747 161.747 0 0 1 20.223 7.049 35.395 35.395 0 0 1 13.679 10.825q5.703 7.3 5.706 19.049 0 11.749-6.21 20.055a37.636 37.636 0 0 1 -17.035 12.504 66.196 66.196 0 0 1 -24.084 4.195 87.072 87.072 0 0 1 -29.118-5.119 79.62 79.62 0 0 1 -25.091-14.014l11.916-24a74.077 74.077 0 0 0 21.062 12.923q12.167 5.035 21.566 5.035 6.881 0 10.826-2.518a8.216 8.216 0 0 0 3.944-7.385 8.728 8.728 0 0 0 -2.937-6.714 21.666 21.666 0 0 0 -7.385-4.28q-4.449-1.592-12.503-3.776a154.014 154.014 0 0 1 -19.972-6.798 35.306 35.306 0 0 1 -13.511-10.406q-5.625-6.962-5.622-18.546a32.388 32.388 0 0 1 5.79-19.133 36.854 36.854 0 0 1 16.448-12.671q10.656-4.445 24.755-4.448a89.835 89.835 0 0 1 25.175 3.608 82.948 82.948 0 0 1 21.818 9.65l-11.581 24.504a103.267 103.267 0 0 0 -20.055-9.063zm47.411-26.35h33.399l34.07 68.811 33.902-68.811h33.399v117.65h-27.189l-.168-74.517-30.042 62.769h-19.805l-30.21-62.769v74.517h-27.357zm157.594 0h30.714v91.469h49.847v26.181h-80.56z"/></svg>
